<svg width="20" height="20" viewBox="0 0 20 20" fill="none" xmlns="http://www.w3.org/2000/svg">
<g id="Iconly/Broken/Category">
<g id="Category">
<path id="Category_2" fill-rule="evenodd" clip-rule="evenodd" d="M6.82991 2.08325H4.48614C3.16258 2.09144 2.09161 3.18474 2.08358 4.53588V6.92851C2.09164 8.27842 3.16377 9.36955 4.48614 9.37364H6.82991C7.46643 9.37563 8.07755 9.1189 8.52833 8.66013C8.97911 8.20136 9.23247 7.5783 9.23246 6.92851V4.53588C9.22843 3.18304 8.15513 2.08737 6.82991 2.08325ZM7.93905 6.92862C7.94297 7.23228 7.82805 7.52498 7.61977 7.74182C7.4115 7.95866 7.12709 8.08171 6.82961 8.08368H4.48584C4.18393 8.08987 3.8926 7.97016 3.67908 7.75219C3.46556 7.53422 3.3483 7.23681 3.35436 6.92862V4.53599C3.3543 4.23168 3.47421 3.94015 3.68706 3.72709C3.89991 3.51404 4.1878 3.39739 4.48584 3.40343H6.82961C7.44067 3.40752 7.93504 3.9122 7.93905 4.53599V6.92862ZM17.9095 4.53593V6.92105C17.9173 7.56955 17.6725 8.19467 17.2288 8.65886C16.7851 9.12305 16.1789 9.38827 15.5437 9.39618H14.5738C14.2453 9.36027 13.9961 9.07723 13.9961 8.7399C13.9961 8.40257 14.2453 8.11952 14.5738 8.08361H15.5143C15.8117 8.08164 16.0962 7.95859 16.3044 7.74175C16.5127 7.52491 16.6276 7.23221 16.6237 6.92855V4.53593C16.6158 3.91381 16.1237 3.41145 15.5143 3.40337H13.1705C12.5578 3.40337 12.0611 3.91043 12.0611 4.53593V8.11361C12.0491 8.4764 11.7554 8.76293 11.3998 8.75865C11.229 8.75474 11.0667 8.68116 10.9494 8.55432C10.8321 8.42749 10.7694 8.25797 10.7753 8.08361V4.53593C10.7733 3.88614 11.0248 3.26228 11.4742 2.80211C11.9236 2.34193 12.534 2.08329 13.1705 2.0833H15.5143C16.8268 2.11511 17.8823 3.19592 17.9095 4.53593ZM13.1703 10.6263H15.5141C16.8365 10.6304 17.9086 11.7215 17.9167 13.0715V15.4641C17.9086 16.8152 16.8377 17.9085 15.5141 17.9167H13.1703C11.848 17.9085 10.7791 16.814 10.7751 15.4641V13.0715C10.7751 11.7211 11.8475 10.6263 13.1703 10.6263ZM16.3009 16.2672C16.5094 16.0543 16.6256 15.7651 16.6236 15.4641V13.0715C16.6236 12.7711 16.5068 12.483 16.2987 12.2706C16.0906 12.0582 15.8084 11.9389 15.5142 11.9389H13.1704C12.5577 11.9389 12.061 12.446 12.061 13.0715V15.4641C12.059 15.7651 12.1753 16.0543 12.3838 16.2672C12.5923 16.48 12.8756 16.5987 13.1704 16.5967H15.5142C15.809 16.5987 16.0924 16.48 16.3009 16.2672ZM2.0835 15.4566V13.0714C2.08349 12.4217 2.33685 11.7986 2.78763 11.3398C3.23841 10.8811 3.84953 10.6243 4.48605 10.6263H5.44854C5.69463 10.5994 5.93417 10.7183 6.06546 10.9325C6.19674 11.1467 6.19674 11.4186 6.06546 11.6327C5.93417 11.8469 5.69463 11.9658 5.44854 11.9389H4.48605C3.87212 11.9389 3.3733 12.4447 3.36927 13.0714V15.4341C3.38488 16.0558 3.87697 16.5548 4.48605 16.5666H6.84452C7.14003 16.5686 7.42411 16.4502 7.63376 16.2376C7.84341 16.025 7.96131 15.7358 7.9613 15.4341V11.8864C7.91338 11.6215 8.028 11.3534 8.25088 11.2091C8.47377 11.0648 8.76017 11.0733 8.97447 11.2306C9.18877 11.3878 9.28794 11.6622 9.22503 11.9239V15.4566C9.22503 16.8111 8.14937 17.9092 6.82247 17.9092H4.48605C3.17063 17.8813 2.11079 16.7994 2.0835 15.4566Z" fill="#9CAFD3"/>
</g>
</g>
</svg>
