<svg width="23" height="23" viewBox="0 0 23 23" fill="none" xmlns="http://www.w3.org/2000/svg">
<path fill-rule="evenodd" clip-rule="evenodd" d="M19.3125 7.27493C19.9949 7.82372 20.3954 8.64933 20.4042 9.52493L20.3959 17.1666C20.3959 19.2423 18.7132 20.9249 16.6375 20.9249H14.9709C13.9662 20.9249 13.1505 20.1129 13.1459 19.1083V15.6583C13.1459 15.3913 12.9295 15.1749 12.6625 15.1749H10.1625C10.0329 15.1749 9.90868 15.227 9.81779 15.3194C9.72691 15.4119 9.67697 15.537 9.67921 15.6666V16.9833C9.67921 17.3975 9.34342 17.7333 8.92921 17.7333C8.51499 17.7333 8.17921 17.3975 8.17921 16.9833V15.6666C8.17921 15.1384 8.38904 14.6318 8.76255 14.2583C9.13606 13.8848 9.64265 13.6749 10.1709 13.6749H12.6709C13.7676 13.6795 14.6542 14.5699 14.6542 15.6666V19.1083C14.6542 19.2832 14.796 19.4249 14.9709 19.4249H16.6792C17.9218 19.4249 18.9292 18.4176 18.9292 17.1749V9.54159C18.9231 9.11872 18.7273 8.72098 18.3959 8.45826L12.6375 3.86659C11.9114 3.26879 10.8637 3.26879 10.1375 3.86659L8.28754 5.24993C7.94466 5.49616 7.4671 5.4178 7.22087 5.07493C6.97465 4.73205 7.053 4.25449 7.39587 4.00826L9.22087 2.68326C10.4863 1.66613 12.2888 1.66613 13.5542 2.68326L19.3125 7.27493ZM6.15421 19.4166H9.98754V19.4333C10.4018 19.4333 10.7375 19.769 10.7375 20.1833C10.7375 20.5975 10.4018 20.9333 9.98754 20.9333H6.15421C4.08044 20.9287 2.40046 19.2487 2.39587 17.1749V9.54159C2.40913 8.65952 2.82317 7.83144 3.52087 7.29159L4.21254 6.77493C4.53825 6.62138 4.92711 6.72098 5.1389 7.0122C5.35069 7.30341 5.32563 7.70404 5.07921 7.96659L4.40421 8.46659C4.08437 8.73231 3.89831 9.12579 3.89587 9.54159V17.1666C3.905 18.4087 4.91209 19.4121 6.15421 19.4166Z" fill="#130F26"/>
</svg>
