<svg width="40" height="40" viewBox="0 0 40 40" fill="none" xmlns="http://www.w3.org/2000/svg">
<g id="Iconly/Broken/Message">
<g id="Message">
<path id="Message_2" fill-rule="evenodd" clip-rule="evenodd" d="M36.6667 17.1782C36.6667 17.8344 36.1387 18.3663 35.4873 18.3663L35.4725 18.3366C35.1597 18.3366 34.8598 18.2115 34.6386 17.9886C34.4174 17.7658 34.2931 17.4636 34.2931 17.1485V14.7426C34.2532 10.6992 31.0092 7.43132 26.9955 7.39109H13.0046C8.99089 7.43132 5.7469 10.6992 5.70695 14.7426V25.2574C5.7469 29.3008 8.99089 32.5687 13.0046 32.6089H26.9955C31.0092 32.5687 34.2532 29.3008 34.2931 25.2574C34.3606 24.6485 34.8717 24.1879 35.4799 24.1879C36.0882 24.1879 36.5992 24.6485 36.6667 25.2574C36.6505 30.6313 32.33 34.9837 26.9955 35H13.0046C7.6667 34.9918 3.34149 30.6347 3.33337 25.2574V14.7426C3.33337 9.3619 7.66333 5 13.0046 5H26.9955C32.33 5.01631 36.6505 9.36867 36.6667 14.7426V17.1782ZM21.231 19.7623L28.0864 14.2376H28.1012C28.6116 13.8288 29.3532 13.9081 29.7671 14.4158C29.9642 14.6633 30.0549 14.9799 30.0189 15.2952C29.9829 15.6104 29.8232 15.8981 29.5754 16.094L22.7201 21.6336C20.9769 23.0467 18.4924 23.0467 16.7492 21.6336L9.87913 16.094C9.37519 15.6771 9.29644 14.93 9.70222 14.4158C9.89621 14.1693 10.1803 14.0116 10.4907 13.9781C10.8012 13.9446 11.112 14.0381 11.3534 14.2376L18.2825 19.7623C19.148 20.4464 20.3655 20.4464 21.231 19.7623Z" fill="#56565A"/>
</g>
</g>
</svg>
