<svg width="39" height="37" viewBox="0 0 39 37" fill="none" xmlns="http://www.w3.org/2000/svg">
<g id="Iconly/Broken/Notification">
<g id="Notification">
<path id="Notification_2" fill-rule="evenodd" clip-rule="evenodd" d="M32.2168 15.787C32.8765 16.8233 33.2549 18.0241 33.3125 19.2637L33.2693 19.5771C33.319 21.2734 32.7764 22.9315 31.741 24.2475C30.4188 25.7364 28.6113 26.6665 26.6663 26.8588C21.8752 27.4076 17.0403 27.4076 12.2492 26.8588C10.3326 26.6534 8.55655 25.7236 7.26094 24.2475C6.2085 22.9504 5.64971 21.3002 5.68949 19.6069V19.398C5.76875 18.1213 6.17696 16.8899 6.87168 15.8318L6.98702 15.6825C7.70951 14.834 8.20635 13.8056 8.42872 12.6982V11.415V9.62439C8.63316 9.08533 9.1611 8.75478 9.71732 8.81758C10.2735 8.88038 10.7202 9.32098 10.8075 9.89298V11.3851V12.9668C10.8131 13.0214 10.8131 13.0764 10.8075 13.131C10.5073 14.6704 9.8212 16.1009 8.81798 17.2791C8.43163 17.9161 8.21295 18.6466 8.18363 19.398V19.7263C8.15162 20.7832 8.48953 21.8165 9.13515 22.636C10.0303 23.5929 11.2272 24.1858 12.5087 24.3072C17.1469 24.8295 21.8262 24.8295 26.4644 24.3072C27.7809 24.1821 29.0072 23.5608 29.9101 22.5614C30.524 21.7612 30.8456 20.7626 30.8184 19.7412V19.398C30.7888 18.644 30.5755 17.91 30.1984 17.2642C29.1534 16.0994 28.4269 14.6676 28.0935 13.116C28.0879 13.0615 28.0879 13.0065 28.0935 12.9519V11.3553V9.86314C27.6754 5.35683 23.3359 2.56651 19.5587 2.56651C17.9528 2.56268 16.3733 2.98936 14.974 3.80499C14.5866 4.04605 14.1031 4.04976 13.7123 3.81466C13.3214 3.57957 13.0852 3.14294 13.0957 2.67518C13.1063 2.20743 13.362 1.7827 13.763 1.56676C15.4969 0.552963 17.452 0.0137069 19.4433 0C24.4316 0 30.0254 3.6707 30.6598 9.56471V11.3254V12.6385C30.8763 13.748 31.3739 14.7779 32.1015 15.6229C32.1446 15.6739 32.1832 15.7288 32.2168 15.787ZM19.9088 31.2555C20.756 31.1239 21.5174 30.6477 22.024 29.9327H22.0384C22.4764 29.3846 23.2606 29.3078 23.7901 29.7611C24.3196 30.2143 24.3938 31.026 23.9559 31.574C22.8763 33.0352 21.2061 33.8995 19.429 33.9167C17.6569 33.8949 15.9929 33.0311 14.9164 31.574C14.4785 31.026 14.5527 30.2143 15.0822 29.7611C15.6117 29.3078 16.396 29.3846 16.8339 29.9327C17.0262 30.1987 17.2544 30.4349 17.5115 30.634C18.1987 31.1635 19.0616 31.3872 19.9088 31.2555Z" fill="#56565A"/>
</g>
<circle id="Ellipse 15" cx="31" cy="9" r="5" fill="white"/>
</g>
</svg>
