<svg width="11" height="11" viewBox="0 0 11 11" fill="none" xmlns="http://www.w3.org/2000/svg">
<g clip-path="url(#clip0)">
<path d="M4.47684 1.22296L4.384 4.50158L1.22688 4.40542C0.757193 4.39119 0.36554 4.77471 0.351662 5.26245C0.344774 5.50611 0.433641 5.72969 0.582862 5.89403C0.732329 6.05863 0.941971 6.16398 1.17661 6.17095L4.33425 6.2673L4.24152 9.54624C4.23462 9.78988 4.3235 10.0135 4.47285 10.178C4.62216 10.3424 4.8317 10.4476 5.06651 10.4548C5.53609 10.4691 5.92776 10.0856 5.94173 9.59775L6.03454 6.31926L9.19177 6.41541C9.66136 6.42972 10.0531 6.04612 10.0669 5.55846C10.0805 5.07104 9.71135 4.66446 9.2419 4.64992L6.08441 4.55351L6.17709 1.2747C6.1906 0.787136 5.82137 0.380514 5.35205 0.366112C4.88237 0.3517 4.49063 0.735308 4.47684 1.22296Z" fill="white"/>
</g>
<defs>
<clipPath id="clip0">
<rect width="7.52222" height="7.50559" fill="white" transform="matrix(-0.672245 -0.740329 -0.714489 0.699647 10.4194 5.56885)"/>
</clipPath>
</defs>
</svg>
