<svg width="38" height="38" viewBox="0 0 38 38" fill="none" xmlns="http://www.w3.org/2000/svg">
<g id="Iconly/Broken/Profile">
<g id="Profile">
<path id="Profile_2" fill-rule="evenodd" clip-rule="evenodd" d="M12.7591 11.6437C12.7591 8.22382 15.5585 5.44197 19 5.44197C22.4415 5.44197 25.241 8.22382 25.241 11.6437C25.241 15.0621 22.4415 17.8439 19 17.8439C15.5585 17.8439 12.7591 15.0621 12.7591 11.6437ZM10.4695 11.6437C10.4695 16.316 14.2966 20.1191 19 20.1191C23.7034 20.1191 27.5289 16.316 27.5289 11.6437C27.5289 6.96982 23.7034 3.16675 19 3.16675C14.2966 3.16675 10.4695 6.96982 10.4695 11.6437ZM17.3813 34.8097C17.9118 34.8255 18.4519 34.8334 19 34.8334C24.4379 34.8334 31.6667 34.2302 31.6667 29.0227C31.6667 23.1788 22.1325 23.1788 19 23.1788C13.5621 23.1788 6.33337 23.782 6.33337 28.991C6.33337 30.5506 7.0631 32.6548 10.5397 33.8248C11.1403 34.0307 11.7872 33.7061 11.9912 33.1124C12.1935 32.5186 11.8732 31.8742 11.2742 31.6731C8.89539 30.872 8.62134 29.7589 8.62134 28.991C8.62134 26.643 12.1138 25.4524 19 25.4524C25.8862 25.4524 29.3787 26.6541 29.3787 29.0227C29.3787 31.3692 25.8862 32.5582 19 32.5582C18.4743 32.5582 17.9564 32.5519 17.4466 32.5376C16.8348 32.5424 16.2899 33.0142 16.2723 33.6412C16.2532 34.2697 16.7503 34.7938 17.3813 34.8097Z" fill="#56565A"/>
</g>
</g>
</svg>
