<svg width="19" height="21" viewBox="0 0 19 21" fill="none" xmlns="http://www.w3.org/2000/svg">
<rect x="12.2139" y="11.5198" width="9.71866" height="2.44474" rx="1.22237" transform="rotate(45.7123 12.2139 11.5198)" fill="#9CAFD3"/>
<path fill-rule="evenodd" clip-rule="evenodd" d="M10.1977 0.70348C9.33974 0.356856 8.40212 0.166016 7.41993 0.166016C3.32201 0.166016 0 3.48803 0 7.58594C0 11.6839 3.32201 15.0059 7.41993 15.0059C11.5178 15.0059 14.8399 11.6839 14.8399 7.58594C14.8399 5.57056 14.0363 3.74285 12.7322 2.40568L10.9974 4.82493C11.5876 5.5885 11.9388 6.54622 11.9388 7.58594C11.9388 10.0816 9.9156 12.1048 7.41993 12.1048C4.92425 12.1048 2.9011 10.0816 2.9011 7.58594C2.9011 5.09026 4.92425 3.06712 7.41993 3.06712C7.76458 3.06712 8.10022 3.1057 8.42277 3.17879L10.1977 0.70348Z" fill="#9CAFD3"/>
</svg>
