<svg width="39" height="39" viewBox="0 0 39 39" fill="none" xmlns="http://www.w3.org/2000/svg">
<g id="Iconly/Broken/Setting">
<g id="Setting">
<path id="Setting_2" fill-rule="evenodd" clip-rule="evenodd" d="M14.5305 11.171C13.1927 11.9125 11.5517 11.9018 10.2241 11.1431L10.1657 11.086C9.56831 10.7234 9.38508 9.95652 9.75641 9.37319C10.1277 8.78986 10.913 8.61093 11.5104 8.97354C11.777 9.12547 12.0787 9.20895 12.3874 9.21618C12.8604 9.2355 13.3219 9.07033 13.6701 8.75707C14.0183 8.44381 14.2246 8.00819 14.2436 7.54622C14.2346 5.2251 16.1211 3.31962 18.497 3.25H20.4994C22.9211 3.25 24.8843 5.16709 24.8843 7.53195C24.8804 7.83295 24.9613 8.12922 25.1182 8.38834C25.351 8.7895 25.7384 9.0831 26.1941 9.20374C26.6499 9.32438 27.1361 9.26205 27.5445 9.03063C29.6021 7.93679 32.1768 8.61564 33.391 10.5721C33.7266 11.1692 33.5203 11.9185 32.9233 12.2706C32.3167 12.6088 31.5445 12.4124 31.1839 11.8282C30.6886 11.0043 29.6059 10.7241 28.7576 11.2002C27.4154 11.9179 25.7871 11.9003 24.4614 11.1539C23.1357 10.4075 22.3044 9.04015 22.268 7.54622C22.2838 7.07837 22.1045 6.62428 21.7711 6.28793C21.4377 5.95159 20.9788 5.76182 20.4994 5.76208H18.497C18.0163 5.76193 17.556 5.95126 17.2203 6.28714C16.8846 6.62303 16.702 7.07702 16.7138 7.54622C16.7002 9.04829 15.8683 10.4296 14.5305 11.171ZM16.7138 31.5108C16.7218 32.467 17.5178 33.2379 18.497 33.2379L18.4823 33.2664C18.9366 33.2664 19.3564 33.5031 19.5836 33.8873C19.8107 34.2715 19.8107 34.7449 19.5836 35.1291C19.3564 35.5133 18.9366 35.75 18.4823 35.75C16.0606 35.75 14.0974 33.8329 14.0974 31.468C14.1014 31.167 14.0205 30.8707 13.8636 30.6116C13.3732 29.7826 12.2893 29.4956 11.4373 29.9693C9.37965 31.0632 6.80497 30.3843 5.59074 28.4278L4.59683 26.7293C3.47669 24.72 4.17186 22.2058 6.17539 21.0201C6.44094 20.8675 6.66229 20.6513 6.81851 20.392C7.11165 19.993 7.21699 19.4911 7.1082 19.0116C6.99941 18.5322 6.68677 18.1207 6.24847 17.88C4.24494 16.6942 3.54977 14.18 4.66991 12.1707C4.85734 11.8955 5.14934 11.7047 5.48128 11.6404C5.81322 11.5761 6.15771 11.6437 6.43849 11.8281C6.99314 12.1964 7.15396 12.9251 6.80389 13.4838C6.32013 14.3116 6.61449 15.3656 7.46163 15.8389C8.0981 16.2198 8.622 16.7559 8.98173 17.3947C10.1019 19.404 9.4067 21.9182 7.40316 23.1039C6.55602 23.5773 6.26166 24.6312 6.74543 25.459L7.75396 27.1575C7.98343 27.5623 8.37205 27.8581 8.83001 27.9766C9.28796 28.0952 9.77561 28.0262 10.1803 27.7855C10.8327 27.416 11.5746 27.2238 12.3289 27.2289C14.7506 27.2289 16.7138 29.146 16.7138 31.5108ZM32.8063 21.0058C32.398 20.7761 32.1005 20.3967 31.9797 19.9519C31.859 19.5071 31.925 19.0336 32.1632 18.6365C32.3194 18.3772 32.5408 18.161 32.8063 18.0085C33.4062 17.6566 33.6021 16.8975 33.2448 16.31C32.8897 15.73 32.1318 15.523 31.5201 15.839C29.5166 17.0247 28.8214 19.5389 29.9415 21.5482C30.2973 22.2502 30.8498 22.8392 31.5347 23.2467C31.9421 23.4737 32.2393 23.8505 32.3602 24.293C32.481 24.7356 32.4154 25.2069 32.1778 25.6018L31.1839 27.3003C30.9446 27.6978 30.557 27.9894 30.1023 28.1139C29.6469 28.2325 29.1616 28.1656 28.7576 27.9283C27.4131 27.2096 25.7819 27.2285 24.4553 27.9784C23.1287 28.7282 22.2994 30.1 22.268 31.5965C22.3379 32.2348 22.8895 32.7189 23.5469 32.7189C24.2043 32.7189 24.7558 32.2348 24.8258 31.5965C24.8137 30.9729 25.1497 30.3922 25.703 30.0805C26.2562 29.7689 26.9392 29.7755 27.486 30.0979C29.5436 31.1917 32.1183 30.5128 33.3325 28.5564L34.3264 26.8578C35.5537 24.8309 34.8746 22.2165 32.8063 21.0058ZM19.4909 14.1403C17.2667 14.1403 15.2619 15.4494 14.4121 17.4566C13.5623 19.4638 14.0352 21.7732 15.61 23.3069C17.1848 24.8407 19.551 25.2963 21.6041 24.4611C23.6573 23.626 24.9925 21.6647 24.9866 19.4928C24.9866 18.0707 24.4071 16.7072 23.3761 15.703C22.345 14.6988 20.9471 14.1365 19.4909 14.1403ZM19.4909 22.3617C17.8764 22.3617 16.5676 21.0836 16.5676 19.507C16.5676 17.9305 17.8764 16.6524 19.4909 16.6524C21.1053 16.6524 22.4141 17.9305 22.4141 19.507C22.4141 21.0836 21.1053 22.3617 19.4909 22.3617Z" fill="#56565A"/>
</g>
</g>
</svg>
